# xmcd
#
# Track frame offsets: 
#        150
#        11435
#        22360
#        34663
#        45236
#        58970
#        84571
#        97955
#        109857
#        122629
#        134043
#        147878
#        159626
#        175432
#        189202
#
# Disc length: 2691 seconds
#
# Revision: 0
# Processed by: cddbd v1.5.2PL0 Copyright (c) Steve Scherf et al.
# Submitted via: ExactAudioCopy v0.95a5
#
DISCID=cc0a810f
DTITLE=Various Artist - So Blues - CD1
DYEAR=2007
DGENRE=Blues
TTITLE0=John Lee Hooker - Boom Boom
TTITLE1=BB King - Catfish Blues
TTITLE2=T-Bone Walker - Blues Is A Woman
TTITLE3=Clarence Frogman henry - Ain't Got No Home
TTITLE4=Memphis Minnie - Me And My Chauffeur
TTITLE5=Rab Mc Cullough - When The Blues Comes Callin'
TTITLE6=Big Joe Williams - Meet Me Around The Corner
TTITLE7=Bukka White - Parchman Farm Blues
TTITLE8=Howlin' Wolf - I've Got A Woman
TTITLE9=Jimmy Witherspoon - Trouble In My Mind
TTITLE10=Kokomo Arnold - Grandpa Got Drunk
TTITLE11=Brownie Mc Ghee - Not Guilty Blues
TTITLE12=Screamin' Jay Hawkins - I Put A Spell On You
TTITLE13=Big Joe Turner - Back Breaking Blues
TTITLE14=Bling Boy Fuller N°2 - Money Spending Woman
EXTD=
EXTT0=
EXTT1=
EXTT2=
EXTT3=
EXTT4=
EXTT5=
EXTT6=
EXTT7=
EXTT8=
EXTT9=
EXTT10=
EXTT11=
EXTT12=
EXTT13=
EXTT14=
PLAYORDER=
